<svg id="f36be179-1e47-4a0d-92f8-0f9d396630ae" data-name="Objects" xmlns="http://www.w3.org/2000/svg" viewBox="0 0 74.94 74.94"><path d="M77.35,121.59v18.33a.48.48,0,0,0,.48.47h6.81a.48.48,0,0,0,.48-.47V121.29h4.93a.48.48,0,0,0,.48-.44l.47-5.61a.48.48,0,0,0-.48-.52h-5.4v-4a1.68,1.68,0,0,1,1.69-1.69h3.8a.49.49,0,0,0,.48-.48V103a.48.48,0,0,0-.48-.47H84.18a6.83,6.83,0,0,0-6.83,6.83v5.41H74a.48.48,0,0,0-.48.48v5.61a.49.49,0,0,0,.48.48h3.4Z" transform="translate(-44.81 -83.97)" style="fill-rule:evenodd"/><path d="M82.28,84a37.47,37.47,0,1,0,37.47,37.47A37.51,37.51,0,0,0,82.28,84Zm32.66,37.47A32.67,32.67,0,1,1,82.28,88.77,32.7,32.7,0,0,1,114.94,121.44Z" transform="translate(-44.81 -83.97)"/></svg>