<svg id="b7b0210e-2fc8-4009-b4da-288e65322749" data-name="Objects" xmlns="http://www.w3.org/2000/svg" viewBox="0 0 74.94 74.94"><path d="M321.24,111.17a2.25,2.25,0,1,1-2.24-2.25A2.24,2.24,0,0,1,321.24,111.17Zm-2.79,10.06A9.43,9.43,0,1,1,309,111.8,9.44,9.44,0,0,1,318.45,121.23Zm-3.39,0a6,6,0,1,0-6,6A6,6,0,0,0,315.06,121.23Zm13-7.58a11.5,11.5,0,0,0-11.5-11.5H300.91a11.5,11.5,0,0,0-11.5,11.5v15.7a11.5,11.5,0,0,0,11.5,11.5H316.6a11.5,11.5,0,0,0,11.5-11.5Zm-3.77,15.52a7.9,7.9,0,0,1-7.9,7.9H301.08a7.9,7.9,0,0,1-7.9-7.9V113.83a7.9,7.9,0,0,1,7.9-7.9h15.35a7.9,7.9,0,0,1,7.9,7.9Z" transform="translate(-271.28 -84.03)"/><path d="M308.75,84a37.47,37.47,0,1,0,37.47,37.47A37.51,37.51,0,0,0,308.75,84Zm0,70.14a32.67,32.67,0,1,1,32.67-32.67A32.7,32.7,0,0,1,308.75,154.17Z" transform="translate(-271.28 -84.03)"/></svg>