<svg id="b0f300cb-28c9-4637-b324-429534b69bb6" data-name="Objects" xmlns="http://www.w3.org/2000/svg" viewBox="0 0 74.94 74.94"><path d="M65.58,295.84h7.16v23H65.58Zm3.58-11.44A4.15,4.15,0,1,1,65,288.54a4.15,4.15,0,0,1,4.15-4.14m8.07,34.46h7.16V307.47c0-3,.57-5.91,4.29-5.91s3.72,3.44,3.72,6.11v11.19h7.15V306.24c0-6.21-1.33-11-8.58-11A7.54,7.54,0,0,0,84.19,299H84.1v-3.15H77.23Z" transform="translate(-44.81 -267.98)"/><path d="M82.28,268a37.47,37.47,0,1,0,37.47,37.47A37.51,37.51,0,0,0,82.28,268Zm0,70.14a32.67,32.67,0,1,1,32.66-32.67A32.71,32.71,0,0,1,82.28,338.12Z" transform="translate(-44.81 -267.98)"/></svg>