<svg id="ffd2f7c2-b82f-4d0c-af6e-1cc41e998ca6" data-name="Objects" xmlns="http://www.w3.org/2000/svg" viewBox="0 0 74.94 74.94"><path d="M213.1,109.5a16.39,16.39,0,0,1-3.94,1.11c.63-.1,1.53-1.24,1.9-1.7a7.34,7.34,0,0,0,1.29-2.36c0-.07.05-.15,0-.2a.22.22,0,0,0-.21,0,20,20,0,0,1-4.62,1.77.3.3,0,0,1-.32-.09,4,4,0,0,0-.41-.41,7.94,7.94,0,0,0-2.24-1.37,7.73,7.73,0,0,0-3.43-.56,8.42,8.42,0,0,0-3.26.92,8.55,8.55,0,0,0-2.63,2.15,8.13,8.13,0,0,0-1.57,3.15,8.43,8.43,0,0,0-.08,3.32c0,.18,0,.21-.16.18-6.35-.94-11.62-3.22-15.89-8.09-.19-.21-.29-.21-.44,0-1.87,2.8-1,7.31,1.37,9.52.32.29.64.59,1,.86a8.17,8.17,0,0,1-3.07-.86c-.18-.12-.27,0-.29.16a4.76,4.76,0,0,0,.05.91,8.17,8.17,0,0,0,5,6.5,5,5,0,0,0,1,.31,9.2,9.2,0,0,1-3,.09c-.22,0-.3.07-.22.28,1.33,3.6,4.18,4.68,6.32,5.29.29.05.57.05.86.12,0,0,0,0,0,.05-.71,1.08-3.17,1.88-4.31,2.28a15.43,15.43,0,0,1-6.56.84c-.35-.05-.42-.05-.52,0s0,.15.1.24c.45.29.9.55,1.37.81a21.31,21.31,0,0,0,4.38,1.75c7.87,2.17,16.74.58,22.65-5.3,4.64-4.61,6.27-11,6.27-17.34,0-.25.29-.38.47-.52a15.66,15.66,0,0,0,3.15-3.2,1.25,1.25,0,0,0,.27-.62v0C213.32,109.4,213.25,109.43,213.1,109.5Z" transform="translate(-156.5 -84.1)"/><path d="M194,84.1a37.47,37.47,0,1,0,37.47,37.47A37.51,37.51,0,0,0,194,84.1Zm0,70.13a32.67,32.67,0,1,1,32.67-32.66A32.7,32.7,0,0,1,194,154.23Z" transform="translate(-156.5 -84.1)"/></svg>