<svg id="b55f6770-217c-40fe-88a8-f7ab0eb4b394" data-name="Objects" xmlns="http://www.w3.org/2000/svg" viewBox="0 0 74.94 74.94"><path d="M89.54,400.09a3.2,3.2,0,0,0-2.73-.62c-.71.29-1.16,1.4-1.62,2a.67.67,0,0,1-.87.19,12.34,12.34,0,0,1-6.16-5.28.75.75,0,0,1,.09-1,4.07,4.07,0,0,0,1.12-1.82,4,4,0,0,0-.5-2.15A5.06,5.06,0,0,0,77.29,389a2.21,2.21,0,0,0-2.37.35,4.82,4.82,0,0,0-1.66,3.8,6.16,6.16,0,0,0,.15,1.21A10.14,10.14,0,0,0,74.57,397c.37.63.77,1.25,1.2,1.84A18.82,18.82,0,0,0,81,403.68a16.07,16.07,0,0,0,3.27,1.55,7.28,7.28,0,0,0,3.8.6,4.59,4.59,0,0,0,3.44-2.56,2.21,2.21,0,0,0,.16-1.31C91.49,401.06,90.27,400.52,89.54,400.09Z" transform="translate(-44.81 -360.22)"/><path d="M82.46,378.42a19,19,0,0,0-16.64,28.21l-2.76,10.3,10.36-2.77a19,19,0,1,0,9-35.74Zm0,34.45a15.49,15.49,0,0,1-7.88-2.18l-.65-.39-5.78,1.55,1.54-5.75-.4-.66a15.41,15.41,0,1,1,13.17,7.43Z" transform="translate(-44.81 -360.22)"/><path d="M82.28,360.22a37.47,37.47,0,1,0,37.47,37.47A37.51,37.51,0,0,0,82.28,360.22Zm0,70.14a32.67,32.67,0,1,1,32.66-32.67A32.71,32.71,0,0,1,82.28,430.36Z" transform="translate(-44.81 -360.22)"/></svg>