<svg id="b85c418a-a17a-4810-991e-3a557d684a4e" data-name="Objects" xmlns="http://www.w3.org/2000/svg" viewBox="0 0 74.94 74.94"><path d="M214,300.39a8.76,8.76,0,0,0-8.76-8.76H182.71a8.76,8.76,0,0,0-8.75,8.76v9.88a8.75,8.75,0,0,0,8.75,8.75h22.52a8.76,8.76,0,0,0,8.76-8.75Zm-12.39,5.2-10.07,5c-.4.22-1.77-.07-1.77-.52V299.84c0-.45,1.38-.73,1.78-.51l9.62,5.23C201.57,304.79,202,305.37,201.6,305.59Z" transform="translate(-156.5 -267.86)"/><path d="M194,267.86a37.47,37.47,0,1,0,37.47,37.47A37.51,37.51,0,0,0,194,267.86ZM194,338a32.67,32.67,0,1,1,32.67-32.66A32.7,32.7,0,0,1,194,338Z" transform="translate(-156.5 -267.86)"/></svg>